<?xml version="1.0" encoding="UTF-8"?>
<svg version="1.1" xmlns="http://www.w3.org/2000/svg" width="218" height="218">
<path d="M0 0 C1.41546714 -0.01141247 2.83089502 -0.03168987 4.24609375 -0.06152344 C27.44030091 -0.54893399 49.40142443 7.80308753 66.25976562 23.89111328 C67.30830892 24.90799343 68.35387673 25.92795352 69.39599609 26.95141602 C70.53143415 28.05790522 71.69633296 29.13408046 72.86865234 30.20141602 C87.01317338 43.31724461 95.69878176 64.28188689 96.98339844 83.39770508 C97.07779694 86.63722195 97.10412492 89.86683087 97.08740234 93.10766602 C97.0817627 94.25477051 97.07612305 95.401875 97.0703125 96.58374023 C96.81577823 114.34821626 91.82937738 131.52511509 81.77490234 146.29516602 C81.30697266 147.00801758 80.83904297 147.72086914 80.35693359 148.45532227 C79.23068693 150.11661866 78.01187728 151.71458692 76.77490234 153.29516602 C76.11490234 153.29516602 75.45490234 153.29516602 74.77490234 153.29516602 C74.53892334 153.8772583 74.30294434 154.45935059 74.05981445 155.05908203 C72.50457893 157.76559964 70.63874989 159.11505268 68.21630859 161.07250977 C63.55191398 165.63223353 62.78069591 169.29841893 62.63076782 175.7305603 C62.62838995 177.77432809 62.66918554 179.81440459 62.71240234 181.85766602 C62.70932165 183.26197777 62.70219134 184.66628676 62.69091797 186.07055664 C62.67919871 189.48086151 62.70827397 192.88564241 62.77490234 196.29516602 C58.80692712 195.0711991 55.34763888 193.62748067 51.75537109 191.55297852 C40.29421104 184.61417802 40.29421104 184.61417802 27.51220703 183.95874023 C26.21334709 184.39663594 24.9171415 184.84247395 23.62353516 185.2956543 C7.6269904 190.7420073 -11.40082009 188.22512175 -27.22509766 183.29516602 C-28.21509766 183.29516602 -29.20509766 183.29516602 -30.22509766 183.29516602 C-30.53962891 183.94743164 -30.85416016 184.59969727 -31.17822266 185.27172852 C-37.88405045 198.96615998 -46.69093956 207.9893671 -61.39697266 213.04125977 C-69.49776866 215.18471856 -78.14808132 214.83880226 -86.35009766 213.48266602 C-91.61683307 212.82755654 -95.28150098 214.73933871 -99.87744141 217.16625977 C-102.22509766 218.29516602 -102.22509766 218.29516602 -105.22509766 218.29516602 C-105.20447266 217.31676758 -105.18384766 216.33836914 -105.16259766 215.33032227 C-105.20949563 206.11921006 -105.20949563 206.11921006 -109.97509766 198.48266602 C-110.69439453 197.79946289 -111.41369141 197.11625977 -112.15478516 196.41235352 C-115.55050295 192.93975155 -117.39786525 188.7499303 -119.22509766 184.29516602 C-119.59119141 183.41602539 -119.95728516 182.53688477 -120.33447266 181.63110352 C-123.66109695 169.17085286 -122.13984508 155.01990495 -115.86962891 143.88891602 C-109.09807816 132.99634108 -100.27484004 126.38347147 -88.22509766 122.29516602 C-88.43005859 121.30516602 -88.63501953 120.31516602 -88.84619141 119.29516602 C-94.35456318 92.4439801 -92.39842357 67.40574516 -78.22509766 43.29516602 C-67.34840671 27.33626903 -67.34840671 27.33626903 -61.22509766 25.29516602 C-61.22509766 24.63516602 -61.22509766 23.97516602 -61.22509766 23.29516602 C-44.12513932 7.94660006 -22.77578072 0.12713753 0 0 Z " fill="#FE9E5E" transform="translate(121.22509765625,-0.295166015625)"/>
<path d="M0 0 C10.18498396 7.6462936 17.03712891 17.52915842 20 30 C21.50268397 43.52415577 18.46548652 56.52554392 10.21484375 67.33984375 C2.78068839 76.22240314 -5.68210944 81.37263255 -17 84 C-19.15625 84.06640625 -19.15625 84.06640625 -21.0625 83.9375 C-26.00875706 84.01601202 -29.22335141 85.69309803 -33.58203125 87.90625 C-36 89 -36 89 -39 89 C-38.979375 88.02160156 -38.95875 87.04320312 -38.9375 86.03515625 C-38.98439797 76.82404405 -38.98439797 76.82404405 -43.75 69.1875 C-44.46929687 68.50429687 -45.18859375 67.82109375 -45.9296875 67.1171875 C-49.32540529 63.64458553 -51.17276759 59.45476428 -53 55 C-53.36609375 54.12085938 -53.7321875 53.24171875 -54.109375 52.3359375 C-57.4359993 39.87568685 -55.91474742 25.72473894 -49.64453125 14.59375 C-44.63825188 6.54075369 -38.37062603 0.45246066 -30 -4 C-29.38511719 -4.34417969 -28.77023438 -4.68835938 -28.13671875 -5.04296875 C-18.89913407 -9.42269316 -8.04400767 -5.26843953 0 0 Z " fill="#FFD88E" transform="translate(55,129)"/>
<path d="M0 0 C13.60755228 -0.43955319 26.06907176 -0.76156924 39 4 C40.04027344 4.37382813 41.08054688 4.74765625 42.15234375 5.1328125 C54.96441155 10.11253512 64.90713394 17.1161974 74.62109375 26.65625 C75.7565318 27.76273921 76.92143062 28.83891444 78.09375 29.90625 C92.23827103 43.0220786 100.92387942 63.98672088 102.20849609 83.10253906 C102.3028946 86.34205594 102.32922258 89.57166486 102.3125 92.8125 C102.30686035 93.95960449 102.3012207 95.10670898 102.29541016 96.28857422 C102.04087588 114.05305025 97.05447504 131.22994907 87 146 C86.53207031 146.71285156 86.06414062 147.42570313 85.58203125 148.16015625 C84.45578459 149.82145265 83.23697494 151.41942091 82 153 C81.34 153 80.68 153 80 153 C79.64603149 153.87313843 79.64603149 153.87313843 79.28491211 154.76391602 C77.72967659 157.47043362 75.86384755 158.81988667 73.44140625 160.77734375 C68.77701164 165.33706752 68.00579357 169.00325291 67.85586548 175.43539429 C67.8534876 177.47916208 67.8942832 179.51923858 67.9375 181.5625 C67.9344193 182.96681176 67.927289 184.37112074 67.91601562 185.77539062 C67.90429636 189.1856955 67.93337163 192.5904764 68 196 C64.03202477 194.77603309 60.57273653 193.33231465 56.98046875 191.2578125 C45.37701665 184.29162323 45.37701665 184.29162323 32.42871094 183.66259766 C31.10124275 184.095864 29.77879389 184.54482171 28.46191406 185.00927734 C22.22078799 187.2085743 16.53131352 187.36984912 9.9375 187.25 C8.95386475 187.23364502 7.97022949 187.21729004 6.95678711 187.20043945 C4.63692877 187.14983262 2.31884937 187.08412179 0 187 C3.30712597 185.26575923 6.26633671 184.42717814 9.9375 183.6875 C24.93888079 180.32772827 38.25866857 173.90035612 50 164 C50.80179688 163.35546875 51.60359375 162.7109375 52.4296875 162.046875 C70.46445454 146.87744478 80.86206225 124.23282026 83 101 C84.36348129 74.56943953 76.78804527 49.86629682 58.91015625 30.03515625 C42.60606989 12.67883978 23.07270464 5.0254506 0 1 C0 0.67 0 0.34 0 0 Z " fill="#FA8D46" transform="translate(116,0)"/>
<path d="M0 0 C9.6402102 7.59166553 16.36306 18.25819453 18.25390625 30.48046875 C19.75836932 45.69226206 15.96523612 56.80966549 7.25 69.15625 C-1.50885809 78.11417304 -12.31273543 83.50938677 -24.859375 84.13671875 C-25.97828125 84.14316406 -27.0971875 84.14960938 -28.25 84.15625 C-29.37921875 84.17042969 -30.5084375 84.18460937 -31.671875 84.19921875 C-34.5 83.96875 -34.5 83.96875 -36.5 81.96875 C-35.15808594 81.5665625 -35.15808594 81.5665625 -33.7890625 81.15625 C-21.19049093 77.07313086 -11.82008553 70.67526367 -5.3203125 58.81640625 C-0.10627658 47.98871851 1.7796546 34.79998107 -2.125 23.28125 C-7.23071943 11.06652539 -14.1989474 1.44437166 -26.625 -4.03125 C-31.28873382 -5.78466931 -35.53467253 -6.7447888 -40.5 -7.03125 C-40.5 -7.36125 -40.5 -7.69125 -40.5 -8.03125 C-26.02713458 -11.35244859 -12.15647079 -8.33990438 0 0 Z " fill="#FFC863" transform="translate(74.5,130.03125)"/>
<path d="M0 0 C4.17049359 1.63548768 7.10821038 3.57269378 10 7 C11.2228253 10.6684759 11.38634028 13.13659719 11 17 C8.86821782 21.23798297 6.48969153 24.25674981 2 26 C-2.05254261 26.63529958 -6.1662824 26.90563196 -9.9140625 25.0546875 C-13.14681406 22.52263086 -15.1811959 20.00304229 -16 16 C-16.14375987 11.07622443 -15.77452294 7.95796259 -12.625 4.0625 C-8.04961136 0.46755178 -5.85586854 -0.49626005 0 0 Z " fill="#FFF4E4" transform="translate(83,82)"/>
<path d="M0 0 C3.24394395 2.09054166 4.93384184 3.41646409 6.8125 6.8125 C7.64570267 11.89673669 7.37624336 15.68501328 5.0625 20.3125 C2.3710655 23.30298278 0.42531165 24.55966649 -3.5546875 25.18359375 C-7.9221323 25.2992426 -11.17386013 25.37514275 -14.6875 22.5625 C-18.51490205 18.35235775 -19.71683451 15.77934314 -19.57421875 9.91015625 C-18.74640308 5.41988339 -15.86254223 2.09669905 -12.3125 -0.625 C-7.87705713 -1.79908782 -4.28719485 -1.59719024 0 0 Z " fill="#FFF5E5" transform="translate(173.1875,83.1875)"/>
<path d="M0 0 C4.21968485 3.54837135 5.57339482 5.72305335 6.1875 11.25 C6.00994127 15.5275513 4.56013746 18.04666458 1.75 21.3125 C-1.98190558 24.51127621 -5.35507013 24.77502235 -10.1015625 24.6015625 C-14.00130453 24.07686994 -16.26906653 22.39870438 -18.8515625 19.5390625 C-21.41595263 15.45609497 -20.96866626 10.95360643 -20.25 6.3125 C-18.58738524 2.84358772 -16.20700988 0.86655835 -12.875 -1.0625 C-7.9456685 -2.23615036 -4.56033241 -2.3678649 0 0 Z " fill="#FFF5E5" transform="translate(131.25,83.6875)"/>
</svg>
